<?xml version="1.0" encoding="utf-8"?>
<!-- Generator: Adobe Illustrator 23.1.1, SVG Export Plug-In . SVG Version: 6.00 Build 0)  -->
<svg version="1.1" id="Ebene_1" xmlns="http://www.w3.org/2000/svg" xmlns:xlink="http://www.w3.org/1999/xlink" x="0px" y="0px"
	 viewBox="0 0 400 324" style="enable-background:new 0 0 400 324;" xml:space="preserve">
<style type="text/css">
	.st0{fill:#141210;}
	.st1{fill:#E61D47;}
</style>
<g>
	<path class="st0" d="M46.16,262.98v-38.87c0-47.73,19.99-71.39,43.65-71.39c22.43,0,31.41,18.36,31.41,44.06v66.2h45.7v-36.01
		c0-50.18,19.58-74.25,43.65-74.25c22.44,0,31.42,18.36,31.42,44.06v66.2h45.69v-72.32c0-48.55-26.11-78.33-67.31-78.33
		c-26.11,0-48.55,11.02-62.82,35.49c-10.61-22.43-31.01-35.49-57.93-35.49c-21.99,0-40.52,8.35-54.22,25.79v-21.14H0v146H46.16z"/>
	
		<rect x="120.96" y="278.11" transform="matrix(-1.836970e-16 1 -1 -1.836970e-16 444.9607 156.9553)" class="st0" width="46.08" height="45.69"/>
	
		<rect x="0" y="277.91" transform="matrix(-1.836970e-16 1 -1 -1.836970e-16 324.0028 277.9132)" class="st0" width="46.08" height="46.09"/>
	
		<rect x="241.82" y="278.15" transform="matrix(-1.836970e-16 1 -1 -1.836970e-16 565.8134 36.1027)" class="st1" width="46.08" height="45.63"/>
	<polygon class="st1" points="253.83,0 207.84,46 354,46 354,192.16 400,146.17 400,0 	"/>
</g>
</svg>
